<svg version="1.1" id="Layer_1" xmlns="http://www.w3.org/2000/svg" xmlns:xlink="http://www.w3.org/1999/xlink" x="0px" y="0px"
	 width="100%" viewBox="0 0 500 500" enable-background="new 0 0 500 500" xml:space="preserve">
<path fill="#000000" opacity="1.000000" stroke="none" 
	d="
M225.000000,501.000000 
	C150.000015,501.000000 75.500038,501.000000 1.000040,501.000000 
	C1.000027,334.333405 1.000027,167.666779 1.000013,1.000129 
	C167.666565,1.000086 334.333130,1.000086 500.999756,1.000043 
	C500.999847,167.666534 500.999847,334.333069 500.999939,500.999817 
	C409.166656,501.000000 317.333344,501.000000 225.000000,501.000000 
M245.540878,133.975494 
	C222.300995,134.895355 201.216202,142.118103 182.478287,155.890381 
	C178.220764,159.019638 174.540878,161.221741 168.636673,159.576111 
	C163.590668,158.169678 157.727661,157.971985 152.124313,161.178131 
	C158.591293,162.361420 164.392151,163.422821 171.166046,164.662277 
	C169.606003,166.388672 169.086685,167.007294 168.522293,167.581635 
	C139.292664,197.326660 128.602295,232.910919 136.036484,273.711426 
	C145.608978,326.247406 192.278961,366.639130 247.282761,367.966919 
	C279.724274,368.750092 307.922455,357.966431 331.785797,335.853302 
	C332.800598,334.912903 335.385559,334.618469 336.698303,335.214355 
	C346.980286,339.881561 357.632996,341.634827 368.810760,340.049805 
	C369.555756,339.944183 370.226044,339.312073 372.275970,338.186157 
	C359.320099,337.877380 348.774567,335.130768 340.293915,326.813751 
	C340.666290,326.253418 340.891663,325.835571 341.189209,325.477783 
	C378.969940,280.050049 376.780823,212.585297 335.729828,170.163071 
	C311.448029,145.070190 281.645538,132.766388 245.540878,133.975494 
z"/>
<path fill="#F6F6F6" opacity="1.000000" stroke="none" 
	d="
M246.035034,133.970383 
	C281.645538,132.766388 311.448029,145.070190 335.729828,170.163071 
	C376.780823,212.585297 378.969940,280.050049 341.189209,325.477783 
	C340.891663,325.835571 340.666290,326.253418 340.293915,326.813751 
	C348.774567,335.130768 359.320099,337.877380 372.275970,338.186157 
	C370.226044,339.312073 369.555756,339.944183 368.810760,340.049805 
	C357.632996,341.634827 346.980286,339.881561 336.698303,335.214355 
	C335.385559,334.618469 332.800598,334.912903 331.785797,335.853302 
	C307.922455,357.966431 279.724274,368.750092 247.282761,367.966919 
	C192.278961,366.639130 145.608978,326.247406 136.036484,273.711426 
	C128.602295,232.910919 139.292664,197.326660 168.522293,167.581635 
	C169.086685,167.007294 169.606003,166.388672 171.166046,164.662277 
	C164.392151,163.422821 158.591293,162.361420 152.124313,161.178131 
	C157.727661,157.971985 163.590668,158.169678 168.636673,159.576111 
	C174.540878,161.221741 178.220764,159.019638 182.478287,155.890381 
	C201.216202,142.118103 222.300995,134.895355 246.035034,133.970383 
M274.739777,358.443054 
	C295.164978,353.601807 313.069489,344.231903 328.172760,329.128265 
	C316.851532,318.341736 310.413574,305.345123 308.171295,290.489594 
	C304.793976,268.114075 301.974213,245.654556 298.887421,223.234894 
	C298.135345,217.772766 297.266388,212.326752 296.451202,206.873322 
	C287.859650,224.136597 280.141174,241.390686 272.570923,258.709564 
	C265.049683,275.916290 257.677551,293.188171 249.948883,311.106415 
	C241.946518,293.777313 234.032440,276.668854 226.143997,259.548553 
	C218.309677,242.545807 210.501160,225.531158 202.093597,207.243332 
	C201.658371,209.956360 201.403732,211.093567 201.301910,212.244293 
	C198.865189,239.785156 196.390854,267.322876 194.052658,294.872162 
	C193.297607,303.768188 194.204895,304.718353 202.985535,306.399078 
	C203.254257,306.450500 203.400040,307.144165 203.533264,307.402771 
	C191.616638,307.402771 179.775711,307.402771 167.934769,307.402771 
	C168.319382,306.471741 168.720169,306.153503 169.147522,306.112579 
	C179.904251,305.082092 183.245499,302.264496 184.533951,291.582550 
	C188.162613,261.499023 191.534424,231.384415 194.972000,201.278000 
	C195.271149,198.658127 196.290344,195.543121 195.299088,193.452911 
	C190.943649,184.268738 185.301285,175.906891 176.528534,169.037140 
	C171.532639,174.829483 166.427536,180.076721 162.082062,185.891632 
	C122.896210,238.328171 139.473022,315.097687 196.719315,346.814758 
	C220.993362,360.263641 246.766846,363.996094 274.739777,358.443054 
M355.669159,285.023041 
	C356.904419,279.863007 358.578339,274.764038 359.306122,269.533386 
	C365.602966,224.278076 350.939270,187.268082 313.637848,160.753677 
	C281.788391,138.114624 246.649429,135.081543 210.134155,148.576675 
	C200.561279,152.114578 191.711548,157.143143 183.476746,164.008881 
	C196.659134,171.680298 204.305710,183.073166 210.224960,196.072021 
	C223.305191,224.796646 236.660263,253.396103 249.911285,282.042908 
	C250.588364,283.506622 251.340836,284.935455 252.398849,287.066772 
	C269.229889,249.398911 285.725830,212.480988 302.221771,175.563065 
	C302.754974,175.709106 303.288177,175.855148 303.821350,176.001190 
	C306.527283,193.185043 309.185516,210.376587 311.950958,227.550858 
	C315.599182,250.207611 319.082947,272.895538 323.145874,295.478607 
	C324.851379,304.958466 328.722198,313.785675 335.316711,321.554077 
	C344.341614,310.578705 351.080353,298.864105 355.669159,285.023041 
z"/>
<path fill="#020202" opacity="1.000000" stroke="none" 
	d="
M274.333984,358.570068 
	C246.766846,363.996094 220.993362,360.263641 196.719315,346.814758 
	C139.473022,315.097687 122.896210,238.328171 162.082062,185.891632 
	C166.427536,180.076721 171.532639,174.829483 176.528534,169.037140 
	C185.301285,175.906891 190.943649,184.268738 195.299088,193.452911 
	C196.290344,195.543121 195.271149,198.658127 194.972000,201.278000 
	C191.534424,231.384415 188.162613,261.499023 184.533951,291.582550 
	C183.245499,302.264496 179.904251,305.082092 169.147522,306.112579 
	C168.720169,306.153503 168.319382,306.471741 167.934769,307.402771 
	C179.775711,307.402771 191.616638,307.402771 203.533264,307.402771 
	C203.400040,307.144165 203.254257,306.450500 202.985535,306.399078 
	C194.204895,304.718353 193.297607,303.768188 194.052658,294.872162 
	C196.390854,267.322876 198.865189,239.785156 201.301910,212.244293 
	C201.403732,211.093567 201.658371,209.956360 202.093597,207.243332 
	C210.501160,225.531158 218.309677,242.545807 226.143997,259.548553 
	C234.032440,276.668854 241.946518,293.777313 249.948883,311.106415 
	C257.677551,293.188171 265.049683,275.916290 272.570923,258.709564 
	C280.141174,241.390686 287.859650,224.136597 296.451202,206.873322 
	C297.266388,212.326752 298.135345,217.772766 298.887421,223.234894 
	C301.974213,245.654556 304.793976,268.114075 308.171295,290.489594 
	C310.413574,305.345123 316.851532,318.341736 328.172760,329.128265 
	C313.069489,344.231903 295.164978,353.601807 274.333984,358.570068 
z"/>
<path fill="#020202" opacity="1.000000" stroke="none" 
	d="
M355.498169,285.383972 
	C351.080353,298.864105 344.341614,310.578705 335.316711,321.554077 
	C328.722198,313.785675 324.851379,304.958466 323.145874,295.478607 
	C319.082947,272.895538 315.599182,250.207611 311.950958,227.550858 
	C309.185516,210.376587 306.527283,193.185043 303.821350,176.001190 
	C303.288177,175.855148 302.754974,175.709106 302.221771,175.563065 
	C285.725830,212.480988 269.229889,249.398911 252.398849,287.066772 
	C251.340836,284.935455 250.588364,283.506622 249.911285,282.042908 
	C236.660263,253.396103 223.305191,224.796646 210.224960,196.072021 
	C204.305710,183.073166 196.659134,171.680298 183.476746,164.008881 
	C191.711548,157.143143 200.561279,152.114578 210.134155,148.576675 
	C246.649429,135.081543 281.788391,138.114624 313.637848,160.753677 
	C350.939270,187.268082 365.602966,224.278076 359.306122,269.533386 
	C358.578339,274.764038 356.904419,279.863007 355.498169,285.383972 
z"/>
</svg>